<svg width="512" height="567" viewBox="0 0 512 567" fill="none" xmlns="http://www.w3.org/2000/svg">
<path d="M34.2975 411C11.8288 372.083 1.4284e-06 327.937 0 283C-1.4284e-06 238.063 11.8288 193.917 34.2975 155C56.7662 116.083 89.0831 83.7662 128 61.2975C166.917 38.8288 211.063 27 256 27L256 74.4972C219.4 74.4972 183.445 84.1313 151.749 102.431C120.052 120.731 93.7312 147.052 75.4313 178.749C57.1313 210.445 47.4972 246.4 47.4972 283C47.4972 319.6 57.1313 355.555 75.4313 387.251L34.2975 411Z" fill="#107C76"/>
<path d="M312 50L246 93.3013V6.69873L312 50Z" fill="#107C76"/>
<path d="M477.703 154.999C500.171 193.916 512 238.062 512 283C512 327.937 500.171 372.083 477.703 411C455.234 449.916 422.917 482.233 384 504.702C345.083 527.171 300.937 538.999 256 538.999L256 491.502C292.6 491.502 328.555 481.868 360.251 463.568C391.948 445.268 418.269 418.947 436.569 387.251C454.869 355.554 464.503 319.599 464.503 283C464.503 246.4 454.869 210.445 436.569 178.748L477.703 154.999Z" fill="#107C76"/>
<path d="M200 517L266 473.699L266 560.301L200 517Z" fill="#107C76"/>
</svg>
