<svg width="319" height="124" viewBox="0 0 319 124" fill="none" xmlns="http://www.w3.org/2000/svg">
<path d="M18.0741 52.7428C17.3376 50.7396 17.1408 48.5819 17.5037 46.4866C17.8666 44.3913 18.7763 42.4322 20.1414 40.8062C21.5065 39.1803 23.2789 37.9448 25.2804 37.2239C27.2819 36.503 29.4421 36.3221 31.5437 36.6993L31.1602 38.914C29.4484 38.6067 27.6891 38.7541 26.0589 39.3412C24.4288 39.9284 22.9852 40.9346 21.8734 42.2589C20.7616 43.5832 20.0207 45.1788 19.7251 46.8854C19.4295 48.5919 19.5898 50.3493 20.1897 51.9808L18.0741 52.7428Z" fill="#107C76"/>
<path d="M33.977 38.2419L30.5406 39.7068L31.24 35.6688L33.977 38.2419Z" fill="#107C76"/>
<path d="M40.8788 44.5289C41.6153 46.5322 41.812 48.6899 41.4492 50.7852C41.0863 52.8805 40.1765 54.8396 38.8115 56.4656C37.4464 58.0915 35.674 59.327 33.6725 60.0479C31.6709 60.7688 29.5108 60.9497 27.4092 60.5724L27.7927 58.3578C29.5044 58.6651 31.2638 58.5177 32.8939 57.9306C34.5241 57.3434 35.9677 56.3371 37.0795 55.0129C38.1913 53.6886 38.9322 52.093 39.2278 50.3865C39.5234 48.6799 39.3631 46.9225 38.7633 45.2909L40.8788 44.5289Z" fill="#107C76"/>
<path d="M24.9678 59.0765L28.4042 57.6116L27.7048 61.6496L24.9678 59.0765Z" fill="#107C76"/>
<rect width="8.92776" height="8.89221" transform="matrix(0.984266 0.176695 -0.170651 0.985331 25.3611 42.97)" fill="#D9D9D9"/>
<rect width="2.2275" height="4.455" transform="matrix(0.817796 -0.570152 0.57694 0.820534 30.8409 51.8747)" fill="#D9D9D9"/>
<rect width="1.33916" height="5.77994" transform="matrix(0.984266 0.176695 -0.170651 0.985331 26.6713 44.5604)" fill="#272727"/>
<rect width="1.33383" height="5.80305" transform="matrix(0.170651 -0.985331 0.984266 0.176695 26.4437 45.8746)" fill="#272727"/>
<path d="M245.711 61.0891C244.632 59.2476 244.057 57.1586 244.044 55.0321C244.031 52.9057 244.58 50.8167 245.636 48.9751C246.693 47.1335 248.219 45.6043 250.061 44.5411C251.904 43.4778 253.998 42.9181 256.133 42.9181L256.147 45.1657C254.408 45.1657 252.703 45.6216 251.202 46.4875C249.701 47.3535 248.458 48.599 247.598 50.0989C246.737 51.5988 246.29 53.3002 246.301 55.0321C246.311 56.7641 246.779 58.4655 247.658 59.9653L245.711 61.0891Z" fill="#107C76"/>
<path d="M258.801 44.0065L255.678 46.0555L255.652 41.9574L258.801 44.0065Z" fill="#107C76"/>
<path d="M266.705 48.9751C267.784 50.8166 268.359 52.9056 268.372 55.0321C268.385 57.1586 267.836 59.2476 266.779 61.0891C265.723 62.9307 264.197 64.4599 262.354 65.5232C260.512 66.5864 258.417 67.1461 256.282 67.1461L256.268 64.8985C258.008 64.8985 259.713 64.4427 261.214 63.5767C262.715 62.7107 263.958 61.4652 264.818 59.9653C265.678 58.4654 266.126 56.764 266.115 55.0321C266.104 53.3002 265.636 51.5988 264.758 50.0989L266.705 48.9751Z" fill="#107C76"/>
<path d="M253.615 66.1051L256.738 64.0561L256.763 68.1542L253.615 66.1051Z" fill="#107C76"/>
<rect width="8.92776" height="8.89221" transform="matrix(1 -7.63805e-09 0.00613679 0.999981 251.156 50.1826)" fill="#D9D9D9"/>
<rect width="2.2275" height="4.455" transform="matrix(0.704185 -0.705681 0.712847 0.705681 258.123 57.9789)" fill="#D9D9D9"/>
<rect width="1.33916" height="5.77994" transform="matrix(1 -6.09397e-10 0.00613679 0.999981 252.727 51.5164)" fill="#272727"/>
<rect width="1.33383" height="5.80305" transform="matrix(-0.00613679 -0.999981 1 6.41926e-09 252.735 52.8502)" fill="#272727"/>
<path d="M11.8248 24.9417C12.7202 19.7719 17.6324 16.3325 22.7965 17.2596L46.072 21.438C51.2362 22.3651 54.6967 27.3075 53.8013 32.4773L44.1752 88.0583C43.2798 93.2281 38.3676 96.6674 33.2035 95.7404L9.92797 91.562C4.76382 90.6349 1.30328 85.6925 2.19864 80.5227L11.8248 24.9417Z" stroke="white"/>
<rect x="0.406807" y="0.581013" width="34.0612" height="60.8545" rx="4.5" transform="matrix(0.984266 0.176695 -0.170651 0.985332 16.6253 19.9974)" stroke="white"/>
<ellipse cx="2.86214" cy="2.9108" rx="2.86214" ry="2.9108" transform="matrix(0.984266 0.176695 -0.170651 0.985332 19.6771 85.6876)" fill="#D9D9D9"/>
<rect x="214.244" y="25.5" width="84.2585" height="62.84" stroke="white"/>
<mask id="path-21-inside-1_5_677" fill="white">
<path fill-rule="evenodd" clip-rule="evenodd" d="M194 101L213.744 87.8267H299.003L299.003 87.8272L318.747 101H317.94H299.003L213.744 101L194.647 101L194 101Z"/>
</mask>
<path d="M213.744 87.8267V86.8267H213.441L213.189 86.9948L213.744 87.8267ZM194 101L193.445 100.168L190.699 102L194 102L194 101ZM299.003 87.8267L299.557 86.9945L299.305 86.8267H299.003V87.8267ZM299.003 87.8272L299.558 86.9953L299.558 86.995L299.003 87.8272ZM318.747 101V102H322.047L319.302 100.168L318.747 101ZM299.003 101V102V101ZM213.744 101V100V101ZM194.647 101L194.647 102H194.647L194.647 101ZM213.189 86.9948L193.445 100.168L194.555 101.832L214.299 88.6585L213.189 86.9948ZM213.744 88.8267H299.003V86.8267H213.744V88.8267ZM298.448 88.6588L298.449 88.6593L299.558 86.995L299.557 86.9945L298.448 88.6588ZM298.448 88.659L318.192 101.832L319.302 100.168L299.558 86.9953L298.448 88.659ZM318.747 100H317.94V102H318.747V100ZM317.94 100H299.003V102H317.94V100ZM299.003 100L213.744 100V102L299.003 102V100ZM213.744 100L194.647 100L194.647 102L213.744 102V100ZM194 102L194.647 102L194.647 100L194 100L194 102Z" fill="white" mask="url(#path-21-inside-1_5_677)"/>
<path d="M241 79L236 76.1132V81.8868L241 79ZM54 79.5H56.0326V78.5H54V79.5ZM60.0978 79.5H64.163V78.5H60.0978V79.5ZM68.2283 79.5H72.2935V78.5H68.2283V79.5ZM76.3587 79.5H80.4239V78.5H76.3587V79.5ZM84.4891 79.5H88.5544V78.5H84.4891V79.5ZM92.6196 79.5H96.6848V78.5H92.6196V79.5ZM100.75 79.5H104.815V78.5H100.75V79.5ZM108.88 79.5H112.946V78.5H108.88V79.5ZM117.011 79.5H121.076V78.5H117.011V79.5ZM125.141 79.5H129.207V78.5H125.141V79.5ZM133.272 79.5H137.337V78.5H133.272V79.5ZM141.402 79.5H145.467V78.5H141.402V79.5ZM149.533 79.5H153.598V78.5H149.533V79.5ZM157.663 79.5H161.728V78.5H157.663V79.5ZM165.793 79.5H169.859V78.5H165.793V79.5ZM173.924 79.5H177.989V78.5H173.924V79.5ZM182.054 79.5H186.12V78.5H182.054V79.5ZM190.185 79.5H194.25V78.5H190.185V79.5ZM198.315 79.5H202.38V78.5H198.315V79.5ZM206.446 79.5H210.511V78.5H206.446V79.5ZM214.576 79.5H218.641V78.5H214.576V79.5ZM222.706 79.5H226.772V78.5H222.706V79.5ZM230.837 79.5H234.902V78.5H230.837V79.5Z" fill="white"/>
<path d="M38.6464 35.6464C38.4512 35.8417 38.4512 36.1583 38.6464 36.3536L41.8284 39.5355C42.0237 39.7308 42.3403 39.7308 42.5355 39.5355C42.7308 39.3403 42.7308 39.0237 42.5355 38.8284L39.7071 36L42.5355 33.1716C42.7308 32.9763 42.7308 32.6597 42.5355 32.4645C42.3403 32.2692 42.0237 32.2692 41.8284 32.4645L38.6464 35.6464ZM39 36.5H40.9886V35.5H39V36.5ZM44.9659 36.5H48.9432V35.5H44.9659V36.5ZM52.9205 36.5L56.8977 36.5V35.5L52.9205 35.5V36.5ZM60.875 36.5H64.8523V35.5H60.875V36.5ZM68.8295 36.5H72.8068V35.5H68.8295V36.5ZM76.7841 36.5H80.7614V35.5H76.7841V36.5ZM84.7386 36.5H88.7159V35.5H84.7386V36.5ZM92.6932 36.5H96.6704V35.5H92.6932V36.5ZM100.648 36.5H104.625V35.5H100.648V36.5ZM108.602 36.5L112.58 36.5V35.5L108.602 35.5V36.5ZM116.557 36.5H120.534V35.5H116.557V36.5ZM124.511 36.5H128.489V35.5H124.511V36.5ZM132.466 36.5H136.443V35.5H132.466V36.5ZM140.42 36.5L144.398 36.5V35.5H140.42V36.5ZM148.375 36.5H152.352V35.5H148.375V36.5ZM156.33 36.5H160.307V35.5H156.33V36.5ZM164.284 36.5H168.261V35.5H164.284V36.5ZM172.239 36.5H176.216V35.5H172.239V36.5ZM180.193 36.5H184.17V35.5H180.193V36.5ZM188.148 36.5H192.125V35.5H188.148V36.5ZM196.102 36.5L200.08 36.5V35.5L196.102 35.5V36.5ZM204.057 36.5H208.034V35.5H204.057V36.5ZM212.011 36.5H214V35.5H212.011V36.5Z" fill="white"/>
<path d="M127.694 13.6898L132.707 6.04934L165.029 0.576457L171.54 39.0291L133.087 45.5401L127.694 13.6898Z" fill="#272727" stroke="white"/>
<path d="M132.985 6.00226L134.07 12.411L127.662 13.4962" stroke="white"/>
<rect x="105.13" y="62.5792" width="38" height="55" transform="rotate(10 105.13 62.5792)" fill="#272727" stroke="white"/>
<path d="M118.745 74.6264L136.471 77.7521" stroke="white"/>
<path d="M107.044 77.6404L135.603 82.6761" stroke="white"/>
<path d="M106.175 82.5644L134.735 87.6002" stroke="white"/>
<path d="M105.307 87.4884L133.867 92.5242" stroke="white"/>
<path d="M104.439 92.4125L132.998 97.4483" stroke="white"/>
<path d="M103.571 97.3365L132.13 102.372" stroke="white"/>
<path d="M102.702 102.261L131.262 107.296" stroke="white"/>
<path d="M101.834 107.185L130.394 112.22" stroke="white"/>
<path d="M100.966 112.109L129.525 117.144" stroke="white"/>
<rect x="108.954" y="66.8075" width="7" height="7" transform="rotate(10 108.954 66.8075)" fill="#D9D9D9"/>
</svg>
