<svg width="286" height="115" viewBox="0 0 286 115" fill="none" xmlns="http://www.w3.org/2000/svg">
<path d="M17.3358 10.4362C18.2469 5.26925 23.1742 1.81915 28.3411 2.73023L68.7183 9.8498C73.8853 10.7609 77.3354 15.6881 76.4243 20.8551L61.6642 104.564C60.7531 109.731 55.8259 113.181 50.6589 112.27L10.2817 105.15C5.11474 104.239 1.66464 99.3119 2.57572 94.1449L17.3358 10.4362Z" stroke="white"/>
<rect x="23.8524" y="8.03131" width="48" height="84" rx="4.5" transform="rotate(10 23.8524 8.03131)" stroke="white"/>
<circle cx="31.1066" cy="102.222" r="4" transform="rotate(10 31.1066 102.222)" fill="white"/>
<rect x="132.464" y="6.5" width="124.072" height="82.16" stroke="white"/>
<mask id="path-5-inside-1_5_676" fill="white">
<path fill-rule="evenodd" clip-rule="evenodd" d="M286 105L257.036 87.84H131.964L131.964 87.84L103 105H131.964V105H257.036H284.816H286Z"/>
</mask>
<path d="M257.036 87.84L257.546 86.9797L257.31 86.84H257.036V87.84ZM286 105V106H289.65L286.51 104.14L286 105ZM131.964 87.84V86.84H131.41L131.116 87.31L131.964 87.84ZM131.964 87.84L132.474 88.7004L132.683 88.5763L132.812 88.37L131.964 87.84ZM103 105L102.49 104.14L99.3502 106H103V105ZM131.964 105V106H132.964V105H131.964ZM131.964 105V104H130.964V105H131.964ZM256.526 88.7003L285.49 105.86L286.51 104.14L257.546 86.9797L256.526 88.7003ZM131.964 88.84H257.036V86.84H131.964V88.84ZM132.812 88.37L132.812 88.37L131.116 87.31L131.116 87.31L132.812 88.37ZM131.454 86.9797L102.49 104.14L103.51 105.86L132.474 88.7004L131.454 86.9797ZM103 106H131.964V104H103V106ZM132.964 105V105H130.964V105H132.964ZM257.036 104H131.964V106H257.036V104ZM284.816 104H257.036V106H284.816V104ZM286 104H284.816V106H286V104Z" fill="white" mask="url(#path-5-inside-1_5_676)"/>
<rect x="178.094" y="57.8526" width="5.79942" height="5.63882" fill="#B4B4B4"/>
<rect x="175" y="54.8722" width="11.6457" height="11.5995" stroke="#B4B4B4" stroke-width="2"/>
<rect x="178.094" y="31.9803" width="5.79942" height="5.63882" fill="#B4B4B4"/>
<rect x="175" y="29" width="11.6457" height="11.5995" stroke="#B4B4B4" stroke-width="2"/>
<rect x="205.385" y="31.9803" width="5.79942" height="5.63882" fill="#B4B4B4"/>
<rect x="202.291" y="29" width="11.6457" height="11.5995" stroke="#B4B4B4" stroke-width="2"/>
<rect x="197.198" y="34.6339" width="2.04685" height="11.6093" fill="#B4B4B4"/>
<rect x="193.445" y="34.6339" width="5.79942" height="1.99017" fill="#B4B4B4"/>
<rect x="191.398" y="40.6044" width="2.04685" height="5.63882" fill="#B4B4B4"/>
<rect x="213.231" y="59.8428" width="2.04685" height="5.63882" fill="#B4B4B4"/>
<rect x="209.138" y="65.4816" width="4.09371" height="1.99017" fill="#B4B4B4"/>
<rect x="185.94" y="43.5897" width="2.04685" height="5.63882" fill="#B4B4B4"/>
<rect x="189.693" y="51.8821" width="15.3514" height="1.99017" fill="#B4B4B4"/>
<rect x="193.445" y="61.5012" width="11.5988" height="1.99017" fill="#B4B4B4"/>
<rect x="191.398" y="63.4914" width="2.04685" height="3.98034" fill="#B4B4B4"/>
<rect x="202.997" y="61.5012" width="2.04685" height="5.30713" fill="#B4B4B4"/>
<rect x="199.245" y="61.5012" width="2.04685" height="5.97052" fill="#B4B4B4"/>
<rect x="211.185" y="51.8821" width="2.04685" height="1.99017" fill="#B4B4B4"/>
<rect x="208.796" y="53.8722" width="2.04685" height="1.99017" fill="#B4B4B4"/>
<rect x="209.138" y="53.8722" width="2.04685" height="1.99017" fill="#B4B4B4"/>
<rect x="193.445" y="38.6143" width="2.04685" height="1.99017" fill="#B4B4B4"/>
<rect x="191.398" y="28" width="2.04685" height="4.97543" fill="#B4B4B4"/>
<rect x="191.398" y="28" width="7.84627" height="1.99017" fill="#B4B4B4"/>
<rect x="207.091" y="55.8624" width="2.04685" height="6.63391" fill="#B4B4B4"/>
<rect x="209.138" y="57.8526" width="4.09371" height="1.99017" fill="#B4B4B4"/>
<rect x="199.245" y="46.2432" width="4.09371" height="1.99017" fill="#B4B4B4"/>
<rect x="202.997" y="51.8821" width="2.04685" height="7.62899" fill="#B4B4B4"/>
<rect x="197.198" y="53.8722" width="2.04685" height="7.62899" fill="#B4B4B4"/>
<rect x="197.198" y="53.8722" width="2.04685" height="7.62899" fill="#B4B4B4"/>
<rect x="193.445" y="53.8722" width="2.04685" height="1.99017" fill="#B4B4B4"/>
<rect x="191.398" y="55.8624" width="2.04685" height="1.99017" fill="#B4B4B4"/>
<rect x="189.351" y="55.8624" width="2.04685" height="1.99017" fill="#B4B4B4"/>
<rect x="189.351" y="57.8526" width="2.04685" height="1.99017" fill="#B4B4B4"/>
<rect x="193.445" y="46.2432" width="2.04685" height="5.63882" fill="#B4B4B4"/>
<rect x="174" y="43.5897" width="2.04685" height="7.62899" fill="#B4B4B4"/>
<rect x="189.693" y="32.9754" width="7.84627" height="1.99017" fill="#B4B4B4"/>
<rect x="189.693" y="32.9754" width="7.84627" height="1.99017" fill="#B4B4B4"/>
<rect x="205.044" y="44.2531" width="7.84627" height="1.99017" fill="#B4B4B4"/>
<rect x="207.091" y="49.8919" width="7.84627" height="1.99017" fill="#B4B4B4"/>
<rect x="205.044" y="42.2629" width="2.04685" height="7.62899" fill="#B4B4B4"/>
<rect x="176.047" y="45.5798" width="7.84627" height="1.99017" fill="#B4B4B4"/>
<rect x="178.094" y="49.2285" width="7.84627" height="1.99017" fill="#B4B4B4"/>
<rect x="178.094" y="43.5897" width="2.04685" height="7.62899" fill="#B4B4B4"/>
</svg>
