<svg width="280" height="115" viewBox="0 0 280 115" fill="none" xmlns="http://www.w3.org/2000/svg">
<path d="M2.24661 20.4588C1.32615 15.2935 4.76729 10.36 9.93263 9.43949L50.2967 2.24661C55.4621 1.32614 60.3956 4.76729 61.3161 9.93262L76.2281 93.6143C77.1486 98.7797 73.7074 103.713 68.5421 104.634L28.178 111.827C23.0127 112.747 18.0791 109.306 17.1587 104.141L2.24661 20.4588Z" stroke="white"/>
<rect x="7.53953" y="15.9605" width="48" height="84" rx="4.5" transform="rotate(-10.104 7.53953 15.9605)" stroke="white"/>
<circle cx="46.7275" cy="101.919" r="4" transform="rotate(-10.104 46.7275 101.919)" fill="white"/>
<rect x="163.353" y="15.5968" width="94" height="62" transform="rotate(3.97947 163.353 15.5968)" stroke="white"/>
<mask id="path-5-inside-1_4_271" fill="white">
<path fill-rule="evenodd" clip-rule="evenodd" d="M157.684 89.8825L135.737 88.3557L158.587 76.9139L253.357 83.5068L274.402 98.0022L252.455 96.4754L157.684 89.8825Z"/>
</mask>
<path d="M135.737 88.3557L135.29 87.4616L132.019 89.0995L135.668 89.3533L135.737 88.3557ZM158.587 76.9139L158.656 75.9163L158.383 75.8973L158.139 76.0197L158.587 76.9139ZM253.357 83.5068L253.925 82.6832L253.7 82.5282L253.427 82.5092L253.357 83.5068ZM274.402 98.0022L274.333 98.9998L277.982 99.2537L274.969 97.1787L274.402 98.0022ZM135.668 89.3533L157.615 90.8801L157.754 88.8849L135.807 87.3582L135.668 89.3533ZM158.139 76.0197L135.29 87.4616L136.185 89.2499L159.034 77.808L158.139 76.0197ZM158.517 77.9115L253.288 84.5044L253.427 82.5092L158.656 75.9163L158.517 77.9115ZM252.79 84.3303L273.835 98.8258L274.969 97.1787L253.925 82.6832L252.79 84.3303ZM274.472 97.0046L252.525 95.4778L252.386 97.473L274.333 98.9998L274.472 97.0046ZM252.525 95.4778L157.754 88.8849L157.615 90.8801L252.386 97.473L252.525 95.4778Z" fill="white" mask="url(#path-5-inside-1_4_271)"/>
<path d="M213.737 53.5366L208.737 50.6498V56.4233L213.737 53.5366ZM39.7374 54.0366H41.7146V53.0366H39.7374V54.0366ZM45.6692 54.0366H49.6237V53.0366H45.6692V54.0366ZM53.5783 54.0366H57.5328V53.0366H53.5783V54.0366ZM61.4874 54.0366H65.4419V53.0366H61.4874V54.0366ZM69.3965 54.0366H73.351V53.0366H69.3965V54.0366ZM77.3055 54.0366H81.2601V53.0366H77.3055V54.0366ZM85.2146 54.0366H89.1692V53.0366H85.2146V54.0366ZM93.1237 54.0366H97.0783V53.0366H93.1237V54.0366ZM101.033 54.0366H104.987V53.0366H101.033V54.0366ZM108.942 54.0366H112.896V53.0366H108.942V54.0366ZM116.851 54.0366H120.806V53.0366H116.851V54.0366ZM124.76 54.0366H128.715V53.0366H124.76V54.0366ZM132.669 54.0366H136.624V53.0366H132.669V54.0366ZM140.578 54.0366H144.533V53.0366H140.578V54.0366ZM148.487 54.0366H152.442V53.0366H148.487V54.0366ZM156.396 54.0366H160.351V53.0366H156.396V54.0366ZM164.306 54.0366H168.26V53.0366H164.306V54.0366ZM172.215 54.0366H176.169V53.0366H172.215V54.0366ZM180.124 54.0366H184.078V53.0366H180.124V54.0366ZM188.033 54.0366H191.987V53.0366H188.033V54.0366ZM195.942 54.0366H199.896V53.0366H195.942V54.0366ZM203.851 54.0366H207.806V53.0366H203.851V54.0366Z" fill="white"/>
</svg>
